<?xml version="1.0" encoding="UTF-8"?>
<svg viewBox="0 0 800 600" xmlns="http://www.w3.org/2000/svg">
  <!-- Definitions for patterns, gradients and other reusable elements -->
  <defs>
    <!-- Photonic lattice pattern -->
    <pattern id="photonicLattice" width="20" height="20" patternUnits="userSpaceOnUse">
      <circle cx="10" cy="10" r="1" fill="#b0e0ff" />
      <path d="M 0 10 L 20 10 M 10 0 L 10 20" stroke="#b0e0ff" stroke-width="0.5" opacity="0.7" />
    </pattern>
    
    <!-- Probability field gradient -->
    <radialGradient id="probabilityField" cx="0.5" cy="0.5" r="0.7">
      <stop offset="0%" stop-color="rgba(255, 255, 255, 0.9)" />
      <stop offset="70%" stop-color="rgba(100, 170, 255, 0.3)" />
      <stop offset="100%" stop-color="rgba(70, 130, 230, 0.1)" />
    </radialGradient>
    
    <!-- Observer effect gradient -->
    <radialGradient id="observerEffect" cx="0.5" cy="0.5" r="0.7">
      <stop offset="0%" stop-color="rgba(255, 230, 100, 0.9)" />
      <stop offset="70%" stop-color="rgba(255, 170, 0, 0.4)" />
      <stop offset="100%" stop-color="rgba(255, 140, 0, 0.1)" />
    </radialGradient>
    
    <!-- Diffeomorphic transformation animation -->
    <animateTransform
      id="wavePulse"
      attributeName="transform"
      type="scale"
      from="1.0"
      to="1.2"
      begin="0s"
      dur="3s"
      repeatCount="indefinite"
      additive="sum"
    />
    
    <!-- Computational node style -->
    <g id="computeNode">
      <rect x="-15" y="-15" width="30" height="30" rx="5" fill="#ddffdd" stroke="#339933" stroke-width="1" />
      <circle cx="0" cy="0" r="8" fill="#339933" />
      <circle cx="0" cy="0" r="5" fill="#112211" />
    </g>
    
    <!-- Field detector style -->
    <g id="fieldDetector">
      <polygon points="-12,-12 12,-12 12,12 -12,12" fill="#ffeecc" stroke="#996633" stroke-width="1" />
      <circle cx="0" cy="0" r="6" fill="#cc9966" />
      <path d="M -5,-5 L 5,5 M -5,5 L 5,-5" stroke="#441100" stroke-width="1.5" />
    </g>
    
    <!-- Connection path styles -->
    <marker id="arrowEnd" markerWidth="10" markerHeight="7" refX="9" refY="3.5" orient="auto">
      <polygon points="0 0, 10 3.5, 0 7" fill="#555577" />
    </marker>
    
    <filter id="glow" x="-50%" y="-50%" width="200%" height="200%">
      <feGaussianBlur stdDeviation="2" result="blur" />
      <feComposite in="SourceGraphic" in2="blur" operator="over" />
    </filter>
  </defs>
  
  <!-- Background with photonic lattice -->
  <rect width="800" height="600" fill="#f0f8ff" />
  <rect width="800" height="600" fill="url(#photonicLattice)" />
  
  <!-- Central diffeomorphic volume sphere -->
  <g id="diffeomorphicVolume">
    <!-- Sphere representation -->
    <circle cx="400" cy="300" r="120" fill="url(#probabilityField)" stroke="#6699cc" stroke-width="1.5" />
    <circle cx="400" cy="300" r="118" fill="none" stroke="#6699cc" stroke-width="0.5" stroke-dasharray="5,3" />
    
    <!-- Diffeomorphic transformation visualization -->
    <g opacity="0.8">
      <path d="M 400 180 C 450 220, 480 250, 520 300 C 480 350, 450 380, 400 420 C 350 380, 320 350, 280 300 C 320 250, 350 220, 400 180 Z" 
            fill="none" stroke="#6699cc" stroke-width="1.5" stroke-dasharray="3,2" />
      <path d="M 400 200 C 440 230, 460 260, 490 300 C 460 340, 440 370, 400 400 C 360 370, 340 340, 310 300 C 340 260, 360 230, 400 200 Z" 
            fill="none" stroke="#6699cc" stroke-width="1" />
      <path d="M 400 220 C 430 240, 450 270, 470 300 C 450 330, 430 360, 400 380 C 370 360, 350 330, 330 300 C 350 270, 370 240, 400 220 Z" 
            fill="none" stroke="#6699cc" stroke-width="0.7" />
    </g>
    
    <!-- Probability field visualization -->
    <g opacity="0.6">
      <path d="M 350 280 C 370 260, 380 270, 400 250 C 420 270, 430 260, 450 280 C 470 300, 450 330, 430 340 C 410 350, 390 350, 370 340 C 350 330, 330 300, 350 280 Z" 
            fill="rgba(100, 170, 255, 0.3)" stroke="#6699cc" stroke-width="0.5" />
      <path d="M 360 270 C 375 255, 390 260, 400 240 C 410 260, 425 255, 440 270 C 460 290, 440 330, 420 335 C 400 345, 380 345, 360 335 C 340 330, 340 290, 360 270 Z" 
            fill="none" stroke="#6699cc" stroke-width="0.5" stroke-dasharray="2,2" />
    </g>
    
    <!-- Observer effect field overlay -->
    <circle cx="450" cy="280" r="50" fill="url(#observerEffect)" opacity="0.7" />
    <text x="450" y="280" font-size="10" text-anchor="middle" fill="#663300">Observer Field</text>
  </g>
  
  <!-- Photonic lattice interaction points -->
  <g id="latticePoints">
    <!-- Grid of interaction points -->
    <g id="grid1" transform="translate(400, 300)">
      <circle cx="-80" cy="-80" r="3" fill="#3377ff" />
      <circle cx="-40" cy="-80" r="3" fill="#3377ff" />
      <circle cx="0" cy="-80" r="3" fill="#3377ff" />
      <circle cx="40" cy="-80" r="3" fill="#3377ff" />
      <circle cx="80" cy="-80" r="3" fill="#3377ff" />
      
      <circle cx="-80" cy="-40" r="3" fill="#3377ff" />
      <circle cx="-40" cy="-40" r="3" fill="#3377ff" />
      <circle cx="0" cy="-40" r="3" fill="#3377ff" />
      <circle cx="40" cy="-40" r="3" fill="#3377ff" />
      <circle cx="80" cy="-40" r="3" fill="#3377ff" />
      
      <circle cx="-80" cy="0" r="3" fill="#3377ff" />
      <circle cx="-40" cy="0" r="3" fill="#3377ff" />
      <circle cx="0" cy="0" r="4" fill="#3377ff" />
      <circle cx="40" cy="0" r="3" fill="#3377ff" />
      <circle cx="80" cy="0" r="3" fill="#3377ff" />
      
      <circle cx="-80" cy="40" r="3" fill="#3377ff" />
      <circle cx="-40" cy="40" r="3" fill="#3377ff" />
      <circle cx="0" cy="40" r="3" fill="#3377ff" />
      <circle cx="40" cy="40" r="3" fill="#3377ff" />
      <circle cx="80" cy="40" r="3" fill="#3377ff" />
      
      <circle cx="-80" cy="80" r="3" fill="#3377ff" />
      <circle cx="-40" cy="80" r="3" fill="#3377ff" />
      <circle cx="0" cy="80" r="3" fill="#3377ff" />
      <circle cx="40" cy="80" r="3" fill="#3377ff" />
      <circle cx="80" cy="80" r="3" fill="#3377ff" />
    </g>
    
    <!-- Special highlighted interaction points in observer field area -->
    <circle cx="450" cy="280" r="4" fill="#ff7700" filter="url(#glow)" />
    <circle cx="470" cy="260" r="4" fill="#ff7700" filter="url(#glow)" />
    <circle cx="430" cy="260" r="4" fill="#ff7700" filter="url(#glow)" />
    <circle cx="450" cy="310" r="4" fill="#ff7700" filter="url(#glow)" />
  </g>
  
  <!-- Computational elements -->
  <g id="computationalElements">
    <!-- Parallel compute nodes -->
    <use href="#computeNode" x="160" y="180" />
    <use href="#computeNode" x="160" y="240" />
    <use href="#computeNode" x="160" y="300" />
    <use href="#computeNode" x="160" y="360" />
    <use href="#computeNode" x="160" y="420" />
    
    <!-- Field detectors -->
    <use href="#fieldDetector" x="640" y="180" />
    <use href="#fieldDetector" x="640" y="240" />
    <use href="#fieldDetector" x="640" y="300" />
    <use href="#fieldDetector" x="640" y="360" />
    <use href="#fieldDetector" x="640" y="420" />
    
    <!-- Connection paths -->
    <g id="connections" stroke="#555577" stroke-width="1.5">
      <!-- Input connections -->
      <path d="M 175 180 C 200 180, 250 200, 290 220" marker-end="url(#arrowEnd)" fill="none" />
      <path d="M 175 240 C 200 240, 240 250, 280 260" marker-end="url(#arrowEnd)" fill="none" />
      <path d="M 175 300 C 200 300, 240 300, 280 300" marker-end="url(#arrowEnd)" fill="none" />
      <path d="M 175 360 C 200 360, 240 350, 280 340" marker-end="url(#arrowEnd)" fill="none" />
      <path d="M 175 420 C 200 420, 250 400, 290 380" marker-end="url(#arrowEnd)" fill="none" />
      
      <!-- Output connections -->
      <path d="M 520 220 C 560 200, 600 180, 625 180" marker-end="url(#arrowEnd)" fill="none" />
      <path d="M 520 260 C 560 250, 600 240, 625 240" marker-end="url(#arrowEnd)" fill="none" />
      <path d="M 520 300 C 560 300, 600 300, 625 300" marker-end="url(#arrowEnd)" fill="none" />
      <path d="M 520 340 C 560 350, 600 360, 625 360" marker-end="url(#arrowEnd)" fill="none" />
      <path d="M 520 380 C 560 400, 600 420, 625 420" marker-end="url(#arrowEnd)" fill="none" />
    </g>
    
    <!-- Parallel processing indicator -->
    <path d="M 140 160 L 140 440 L 180 440 L 180 160 Z" fill="none" stroke="#339933" stroke-width="1" stroke-dasharray="5,3" />
    <text x="110" y="300" font-size="12" text-anchor="middle" transform="rotate(-90, 110, 300)">Parallel Compute Logic</text>
    
    <!-- Detection array indicator -->
    <path d="M 620 160 L 620 440 L 660 440 L 660 160 Z" fill="none" stroke="#996633" stroke-width="1" stroke-dasharray="5,3" />
    <text x="690" y="300" font-size="12" text-anchor="middle" transform="rotate(90, 690, 300)">Field Detection Array</text>
  </g>
  
  <!-- Infinitely differentiable manifold visualization -->
  <g id="differentiableManifold" opacity="0.7">
    <path d="M 350 220 C 380 210, 420 210, 450 220 C 490 235, 510 270, 500 310 C 490 345, 450 370, 400 365 C 350 360, 320 330, 310 290 C 300 250, 320 230, 350 220 Z" 
          fill="none" stroke="#3333aa" stroke-width="1" stroke-dasharray="2,1" />
    <text x="405" y="240" font-size="10" text-anchor="middle" fill="#3333aa">∞-Differentiable</text>
    <text x="405" y="252" font-size="10" text-anchor="middle" fill="#3333aa">Probability Field</text>
  </g>
  
  <!-- Title and labels -->
  <g id="labels">
    <text x="400" y="50" font-size="20" text-anchor="middle" font-weight="bold">Diffeomorphic Volume in Photonic Lattice</text>
    <text x="400" y="75" font-size="16" text-anchor="middle">Infinitely Differentiable Probability Field with Observer Effect</text>
    
    <text x="400" y="530" font-size="14" text-anchor="middle">Parallel Computation Architecture for Diffeomorphic Volume Measurement</text>
    <text x="400" y="550" font-size="12" text-anchor="middle">Measurement of transformation between manifolds determines probability distribution</text>
  </g>
  
  <!-- Legend -->
  <g id="legend" transform="translate(40, 490)">
    <rect x="0" y="0" width="15" height="15" fill="#3377ff" />
    <text x="20" y="12" font-size="12">Photonic Lattice Point</text>
    
    <rect x="160" y="0" width="15" height="15" fill="url(#probabilityField)" />
    <text x="180" y="12" font-size="12">Probability Field</text>
    
    <rect x="320" y="0" width="15" height="15" fill="url(#observerEffect)" />
    <text x="340" y="12" font-size="12">Observer Effect</text>
    
    <use href="#computeNode" x="480" y="7" transform="scale(0.4)" />
    <text x="495" y="12" font-size="12">Compute Node</text>
    
 
  </g>
</svg>